<?xml version="1.0"?>
<svg xmlns="http://www.w3.org/2000/svg" width="50" height="50" viewBox="0 0 50 50">
    <path style="text-indent:0;text-align:start;line-height:normal;text-transform:none;block-progression:tb;-inkscape-font-specification:Bitstream Vera Sans" d="M 11.59375 13.40625 C 5.2327949 13.40625 0 18.637999 0 25 C 0 31.362001 5.2327949 36.59375 11.59375 36.59375 C 16.260518 36.59375 20.009303 33.803062 22.59375 31.21875 C 23.569681 30.24287 24.348519 29.308825 25 28.46875 C 25.651481 29.308825 26.430319 30.24287 27.40625 31.21875 C 29.990697 33.803062 33.739482 36.59375 38.40625 36.59375 C 44.767205 36.59375 50 31.362001 50 25 C 50 18.638252 44.767998 13.40625 38.40625 13.40625 C 33.739482 13.40625 29.990697 16.196938 27.40625 18.78125 C 26.430319 19.75713 25.651481 20.691175 25 21.53125 C 24.363131 20.699269 23.611833 19.777702 22.65625 18.8125 C 20.09012 16.22054 16.336161 13.40625 11.59375 13.40625 z M 11.59375 17.40625 C 14.710339 17.40625 17.63488 19.42546 19.8125 21.625 C 21.17067 22.996841 22.028166 24.133849 22.59375 24.96875 C 22.017145 25.802595 21.152525 26.972548 19.75 28.375 C 17.542697 30.582188 14.593982 32.59375 11.59375 32.59375 C 7.4147051 32.59375 4 29.179999 4 25 C 4 20.820001 7.4147051 17.40625 11.59375 17.40625 z M 38.40625 17.40625 C 42.586502 17.40625 46 20.819748 46 25 C 46 29.179999 42.585295 32.59375 38.40625 32.59375 C 35.406018 32.59375 32.457303 30.582188 30.25 28.375 C 28.876273 27.001344 28.021116 25.83923 27.4375 25 C 28.021116 24.16077 28.876273 22.998656 30.25 21.625 C 32.457303 19.417812 35.406018 17.40625 38.40625 17.40625 z M 36 20 L 36 23 L 33 23 L 33 27 L 36 27 L 36 30 L 40 30 L 40 27 L 43 27 L 43 23 L 40 23 L 40 20 L 36 20 z M 7 23 L 7 27 L 17 27 L 17 23 L 7 23 z" overflow="visible" enable-background="accumulate" font-family="Bitstream Vera Sans"/>
</svg>
