<?xml version="1.0"?>
<svg xmlns="http://www.w3.org/2000/svg" viewBox="0 0 50 50">
    <path d="M 25 12 C 11.542 12 1 17.71 1 25 C 1 32.29 11.542 38 25 38 C 38.458 38 49 32.29 49 25 C 49 17.71 38.458 12 25 12 z M 22.507812 16 L 25.130859 16 L 24.296875 20 L 26.636719 20 C 28.121719 20 29.116641 20.208563 29.681641 20.726562 C 30.237641 21.236563 30.406594 22.077656 30.183594 23.222656 L 29.146484 28 L 26.478516 28 L 27.435547 23.583984 C 27.554547 22.975984 27.509688 22.555031 27.304688 22.332031 C 27.099688 22.111031 26.657281 22 25.988281 22 L 23.890625 22 L 22.623047 28 L 20 28 L 22.507812 16 z M 11 20 L 16.332031 20 C 18.874031 20 20.4155 21.702141 19.8125 24.244141 C 19.1115 27.201141 17.238969 28 13.792969 28 L 12.146484 28 L 11.619141 31 L 8.9726562 31 L 11 20 z M 32 20 L 37.332031 20 C 39.874031 20 41.4155 21.702141 40.8125 24.244141 C 40.1115 27.201141 38.238969 28 34.792969 28 L 33.146484 28 L 32.619141 31 L 29.972656 31 L 32 20 z M 13.271484 22 L 12.517578 26 L 14.226562 26 C 15.706563 26 17.081547 25.832953 17.310547 23.626953 C 17.399547 22.769953 17.041031 22 15.332031 22 L 13.271484 22 z M 34.271484 22 L 33.517578 26 L 35.226562 26 C 36.706562 26 38.081547 25.832953 38.310547 23.626953 C 38.399547 22.769953 38.041031 22 36.332031 22 L 34.271484 22 z"/>
</svg>
